<?xml version="1.0"?>
<svg width="145" height="145" xmlns="http://www.w3.org/2000/svg" xmlns:svg="http://www.w3.org/2000/svg" class="css-98pqax" preserveAspectRatio="xMidYMid meet">
 <g class="layer">
  <title>Layer 1</title>
  <path fill="#FF0000" id="svg_29" stroke="#000000"/>
  <g id="svg_30">
   <circle cx="-22.69" cy="20.61" fill="#111111" id="svg_1" r="9.92" transform="matrix(1.57372 0 0 1.57372 96.313 -7.86862)" xmlns="http://www.w3.org/2000/svg"/>
   <circle cx="-37.38" cy="64.31" fill="#111111" id="svg_2" r="4.96" transform="matrix(1.57372 0 0 1.57372 96.313 -7.86862)" xmlns="http://www.w3.org/2000/svg"/>
   <circle cx="-2.53" cy="89.02" fill="#111111" id="svg_3" r="4.96" transform="matrix(1.57372 0 0 1.57372 96.313 -7.86862)" xmlns="http://www.w3.org/2000/svg"/>
   <circle cx="-18.61" cy="35.21" fill="#111111" id="svg_4" r="4.46" transform="matrix(1.57372 0 0 1.57372 96.313 -7.86862)" xmlns="http://www.w3.org/2000/svg"/>
   <circle cx="0.04" cy="61.26" fill="#111111" id="svg_5" r="5.36" transform="matrix(1.57372 0 0 1.57372 96.313 -7.86862)" xmlns="http://www.w3.org/2000/svg"/>
   <path d="m110.8,25.2c3.81,0 7.07,-2.2 8.66,-5.38c-4.77,-4.26 -10.12,-7.9 -15.94,-10.75c-1.5,1.72 -2.46,3.93 -2.46,6.39c0,5.38 4.36,9.74 9.74,9.74z" fill="#111111" id="svg_6" xmlns="http://www.w3.org/2000/svg"/>
   <circle cx="-2.2" cy="31.52" fill="#111111" id="svg_7" r="11.24" transform="matrix(1.57372 0 0 1.57372 96.313 -7.86862)" xmlns="http://www.w3.org/2000/svg"/>
   <path d="m141.68,87.2c-0.42,2.08 -0.96,4.11 -1.56,6.12c0.87,-1.89 1.42,-3.95 1.56,-6.12z" fill="#111111" id="svg_8" xmlns="http://www.w3.org/2000/svg"/>
   <path d="m124.07,68.25c-9.77,0 -17.69,7.92 -17.69,17.69c0,9.76 7.92,17.69 17.69,17.69c7.13,0 13.25,-4.23 16.05,-10.31c0.6,-2.01 1.13,-4.04 1.56,-6.12c0.03,-0.42 0.06,-0.83 0.06,-1.26c0,-9.77 -7.92,-17.69 -17.67,-17.69z" fill="#111111" id="svg_9" xmlns="http://www.w3.org/2000/svg"/>
   <path d="m22.25,46.08c0,-5.85 -3.9,-10.75 -9.22,-12.39c-4.69,7.11 -8.14,15.12 -10.02,23.72c1.86,1.04 3.97,1.67 6.23,1.67c7.19,0 13.01,-5.82 13.01,-13z" fill="#111111" id="svg_10" xmlns="http://www.w3.org/2000/svg"/>
   <circle cx="6.8" cy="77.58" fill="#111111" id="svg_11" r="8.26" transform="matrix(1.57372 0 0 1.57372 96.313 -7.86862)" xmlns="http://www.w3.org/2000/svg"/>
   <path d="m86.17,22c6.61,0 11.96,-5.35 11.96,-11.96c0,-1.26 -0.24,-2.46 -0.6,-3.59c-6.34,-2.42 -13.11,-3.95 -20.16,-4.45c-1.95,2.12 -3.16,4.93 -3.16,8.04c0,6.61 5.35,11.96 11.96,11.96z" fill="#111111" id="svg_12" xmlns="http://www.w3.org/2000/svg"/>
   <path d="m15.87,104.13c6.61,0 11.96,-5.35 11.96,-11.96c0,-6.59 -5.35,-11.96 -11.96,-11.96c-6.48,0 -11.72,5.16 -11.93,11.6c0.76,2.71 1.67,5.35 2.72,7.92c2.19,2.68 5.48,4.41 9.21,4.41l0,-0.01z" fill="#111111" id="svg_13" xmlns="http://www.w3.org/2000/svg"/>
   <circle cx="-41.53" cy="53.85" fill="#111111" id="svg_14" r="4.48" transform="matrix(1.57372 0 0 1.57372 96.313 -7.86862)" xmlns="http://www.w3.org/2000/svg"/>
   <path d="m56.22,133.26c0,-3.89 -3.16,-7.05 -7.05,-7.05c-3.9,0 -7.07,3.16 -7.07,7.05c0,1.65 0.6,3.15 1.54,4.34c2.2,0.98 4.45,1.84 6.75,2.58c3.3,-0.58 5.82,-3.45 5.82,-6.92l0.01,0z" fill="#111111" id="svg_15" xmlns="http://www.w3.org/2000/svg"/>
   <circle cx="-51.8" cy="48.48" fill="#111111" id="svg_16" r="5.8" transform="matrix(1.57372 0 0 1.57372 96.313 -7.86862)" xmlns="http://www.w3.org/2000/svg"/>
   <circle cx="-38.5" cy="31.54" fill="#111111" id="svg_17" r="7.6" transform="matrix(1.57372 0 0 1.57372 96.313 -7.86862)" xmlns="http://www.w3.org/2000/svg"/>
   <path d="m92.1,106.9c-0.05,-12.78 -10.47,-23.1 -23.23,-23.04c-12.79,0.05 -23.1,10.45 -23.05,23.23c0.05,12.78 10.45,23.09 23.23,23.04c12.78,-0.05 23.1,-10.45 23.05,-23.23z" fill="#111111" id="svg_18" xmlns="http://www.w3.org/2000/svg"/>
   <path d="m121.88,22.08c-5.15,4.89 -8.36,11.82 -8.34,19.48c0.06,14.79 12.1,26.74 26.89,26.67c0.87,0 1.72,-0.05 2.57,-0.13c-1.16,-18 -9.02,-34.17 -21.12,-46.03l0,0.01z" fill="#111111" id="svg_19" xmlns="http://www.w3.org/2000/svg"/>
   <path d="m104.79,60.72c-3.89,0.02 -7,3.16 -6.99,7.05c0.02,3.87 3.16,7 7.05,6.99c3.87,-0.02 7,-3.18 6.99,-7.05c-0.02,-3.87 -3.18,-7 -7.05,-6.99z" fill="#111111" id="svg_20" xmlns="http://www.w3.org/2000/svg"/>
   <circle cx="-41.15" cy="43.39" fill="#111111" id="svg_21" r="2.64" transform="matrix(1.57372 0 0 1.57372 96.313 -7.86862)" xmlns="http://www.w3.org/2000/svg"/>
   <circle cx="-27.56" cy="47.31" fill="#111111" id="svg_22" r="9.45" transform="matrix(1.57372 0 0 1.57372 96.313 -7.86862)" xmlns="http://www.w3.org/2000/svg"/>
   <path d="m42.28,11.55c0,-1.02 -0.11,-2.01 -0.31,-2.97c-8.26,3.92 -15.66,9.38 -21.8,16.02c2.16,1.2 4.64,1.89 7.29,1.89c8.21,-0.03 14.86,-6.72 14.82,-14.93l0,-0.01z" fill="#111111" id="svg_23" xmlns="http://www.w3.org/2000/svg"/>
   <path d="m44.42,118.01c-0.03,-8.21 -6.72,-14.86 -14.93,-14.82c-7.02,0.03 -12.87,4.93 -14.42,11.47c5.11,6.97 11.47,12.95 18.76,17.66c6.15,-1.86 10.62,-7.57 10.59,-14.31z" fill="#111111" id="svg_24" xmlns="http://www.w3.org/2000/svg"/>
   <circle cx="-9.48" cy="50.04" fill="#111111" id="svg_25" r="7.6" transform="matrix(1.57372 0 0 1.57372 96.313 -7.86862)" xmlns="http://www.w3.org/2000/svg"/>
   <path d="m70.7,132.26c-6,0.03 -10.95,4.37 -11.98,10.07c4.39,0.85 8.91,1.31 13.52,1.31c3.59,0 7.11,-0.27 10.56,-0.79c-0.8,-6 -5.9,-10.61 -12.1,-10.59z" fill="#111111" id="svg_26" xmlns="http://www.w3.org/2000/svg"/>
  </g>
 </g>
</svg>