<?xml version="1.0" standalone="no"?>
<!DOCTYPE svg PUBLIC "-//W3C//DTD SVG 20010904//EN"
 "http://www.w3.org/TR/2001/REC-SVG-20010904/DTD/svg10.dtd">
<svg version="1.0" xmlns="http://www.w3.org/2000/svg"
 width="1024.000000pt" height="1024.000000pt" viewBox="0 0 1024.000000 1024.000000"
 preserveAspectRatio="xMidYMid meet">
<metadata>
Created by potrace 1.14, written by Peter Selinger 2001-2017
</metadata>
<g transform="translate(0.000000,1024.000000) scale(0.100000,-0.100000)"
fill="#000000" stroke="none">
<path d="M6253 8680 c-17 -10 -37 -28 -43 -40 -8 -15 -11 -350 -11 -1216 0
-657 3 -1200 7 -1205 3 -5 36 -25 72 -44 37 -19 93 -50 125 -70 l57 -34 0
1277 c0 1142 -2 1280 -16 1300 -36 52 -132 69 -191 32z m185 -1592 l-3 -73
-72 -3 -73 -3 0 76 0 75 75 0 76 0 -3 -72z"/>
<path d="M7352 8680 c-59 -36 -62 -57 -62 -380 0 -321 2 -335 62 -366 58 -30
145 -2 175 57 9 17 13 105 13 322 0 331 -2 341 -64 371 -45 21 -84 20 -124 -4z"/>
<path d="M4284 8680 c-56 -22 -54 1 -54 -711 l0 -657 83 29 c45 16 89 29 98
29 15 0 17 53 21 618 5 668 5 667 -48 691 -29 13 -70 13 -100 1z"/>
<path d="M5603 8584 c-17 -9 -39 -31 -47 -49 -53 -112 57 -219 161 -155 36 21
50 43 53 80 5 54 -1 73 -34 106 -39 39 -80 44 -133 18z"/>
<path d="M2318 8550 l-31 -32 6 -2315 c3 -1273 8 -2317 10 -2319 6 -6 91 22
139 47 10 5 23 9 28 9 6 0 35 11 63 24 29 13 67 30 85 37 32 14 32 14 33 89 1
41 2 86 1 100 0 14 0 995 -1 2181 -1 2107 -1 2157 -20 2180 -18 23 -27 24
-150 27 l-131 4 -32 -32z m312 -4240 c0 -5 -5 -10 -11 -10 -5 0 -7 5 -4 10 3
6 8 10 11 10 2 0 4 -4 4 -10z m-140 -50 c0 -5 -5 -10 -11 -10 -5 0 -7 5 -4 10
3 6 8 10 11 10 2 0 4 -4 4 -10z m70 -34 c0 -3 -4 -8 -10 -11 -5 -3 -10 -1 -10
4 0 6 5 11 10 11 6 0 10 -2 10 -4z m80 -10 c0 -3 -4 -8 -10 -11 -5 -3 -10 -1
-10 4 0 6 5 11 10 11 6 0 10 -2 10 -4z m-50 -10 c0 -3 -4 -8 -10 -11 -5 -3
-10 -1 -10 4 0 6 5 11 10 11 6 0 10 -2 10 -4z m-130 -46 c0 -5 -2 -10 -4 -10
-3 0 -8 5 -11 10 -3 6 -1 10 4 10 6 0 11 -4 11 -10z m180 -24 c0 -3 -4 -8 -10
-11 -5 -3 -10 -1 -10 4 0 6 5 11 10 11 6 0 10 -2 10 -4z m0 -46 c0 -5 -2 -10
-4 -10 -3 0 -8 5 -11 10 -3 6 -1 10 4 10 6 0 11 -4 11 -10z m-30 -20 c0 -5 -5
-10 -11 -10 -5 0 -7 5 -4 10 3 6 8 10 11 10 2 0 4 -4 4 -10z m-270 -24 c0 -3
-4 -8 -10 -11 -5 -3 -10 -1 -10 4 0 6 5 11 10 11 6 0 10 -2 10 -4z m270 -16
c0 -5 -5 -10 -11 -10 -5 0 -7 5 -4 10 3 6 8 10 11 10 2 0 4 -4 4 -10z m-110
-10 c0 -5 -2 -10 -4 -10 -3 0 -8 5 -11 10 -3 6 -1 10 4 10 6 0 11 -4 11 -10z"/>
<path d="M4774 8441 c-17 -11 -36 -34 -43 -52 -7 -22 -11 -175 -11 -490 l0
-459 120 0 120 0 0 471 c0 490 -1 496 -44 531 -29 24 -102 23 -142 -1z"/>
<path d="M6610 8270 c-20 -20 -20 -33 -20 -1148 l0 -1128 48 -23 c113 -54 274
-146 311 -177 21 -19 42 -34 45 -34 3 0 6 556 6 1236 l0 1236 -29 29 -29 29
-156 0 c-143 0 -158 -2 -176 -20z m158 -147 c3 -58 1 -63 -21 -68 -13 -4 -46
-5 -73 -3 l-49 3 -3 68 -3 68 73 -3 73 -3 3 -62z"/>
<path d="M3595 8236 c-51 -23 -70 -52 -70 -108 0 -43 4 -53 33 -79 53 -47 143
-33 171 28 45 97 -43 201 -134 159z"/>
<path d="M2808 8149 c-10 -5 -21 -24 -26 -42 -9 -34 -4 -4018 6 -4027 2 -3 7
1 9 8 3 6 9 12 15 12 13 0 188 85 263 128 112 65 100 -33 103 799 l3 728 -58
17 c-183 53 -284 254 -224 447 25 79 71 141 186 247 l95 86 0 784 c0 771 0
784 -20 804 -18 18 -33 20 -177 20 -87 0 -166 -5 -175 -11z m272 -3493 c0 -3
-4 -8 -10 -11 -5 -3 -10 -1 -10 4 0 6 5 11 10 11 6 0 10 -2 10 -4z m70 -6 c0
-5 -4 -10 -10 -10 -5 0 -10 5 -10 10 0 6 5 10 10 10 6 0 10 -4 10 -10z m-70
-40 c0 -5 -4 -10 -10 -10 -5 0 -10 5 -10 10 0 6 5 10 10 10 6 0 10 -4 10 -10z
m-130 -4 c0 -3 -4 -8 -10 -11 -5 -3 -10 -1 -10 4 0 6 5 11 10 11 6 0 10 -2 10
-4z m170 -56 c0 -5 -4 -10 -10 -10 -5 0 -10 5 -10 10 0 6 5 10 10 10 6 0 10
-4 10 -10z m-40 -20 c0 -5 -5 -10 -11 -10 -5 0 -7 5 -4 10 3 6 8 10 11 10 2 0
4 -4 4 -10z m-250 -14 c0 -3 -4 -8 -10 -11 -5 -3 -10 -1 -10 4 0 6 5 11 10 11
6 0 10 -2 10 -4z m150 0 c0 -3 -4 -8 -10 -11 -5 -3 -10 -1 -10 4 0 6 5 11 10
11 6 0 10 -2 10 -4z m70 -10 c0 -3 -4 -8 -10 -11 -5 -3 -10 -1 -10 4 0 6 5 11
10 11 6 0 10 -2 10 -4z m70 -6 c0 -5 -4 -10 -10 -10 -5 0 -10 5 -10 10 0 6 5
10 10 10 6 0 10 -4 10 -10z m-110 -20 c0 -5 -2 -10 -4 -10 -3 0 -8 5 -11 10
-3 6 -1 10 4 10 6 0 11 -4 11 -10z m-180 -4 c0 -3 -4 -8 -10 -11 -5 -3 -10 -1
-10 4 0 6 5 11 10 11 6 0 10 -2 10 -4z m115 -16 c3 -5 1 -10 -4 -10 -6 0 -11
5 -11 10 0 6 2 10 4 10 3 0 8 -4 11 -10z m105 6 c0 -3 -4 -8 -10 -11 -5 -3
-10 -1 -10 4 0 6 5 11 10 11 6 0 10 -2 10 -4z m70 -6 c0 -5 -2 -10 -4 -10 -3
0 -8 5 -11 10 -3 6 -1 10 4 10 6 0 11 -4 11 -10z m-35 -10 c3 -5 1 -10 -4 -10
-6 0 -11 5 -11 10 0 6 2 10 4 10 3 0 8 -4 11 -10z m-165 -4 c0 -3 -4 -8 -10
-11 -5 -3 -10 -1 -10 4 0 6 5 11 10 11 6 0 10 -2 10 -4z m240 -6 c0 -5 -4 -10
-10 -10 -5 0 -10 5 -10 10 0 6 5 10 10 10 6 0 10 -4 10 -10z m-340 -10 c0 -5
-5 -10 -11 -10 -5 0 -7 5 -4 10 3 6 8 10 11 10 2 0 4 -4 4 -10z m230 0 c0 -5
-5 -10 -11 -10 -5 0 -7 5 -4 10 3 6 8 10 11 10 2 0 4 -4 4 -10z m70 0 c0 -5
-5 -10 -11 -10 -5 0 -7 5 -4 10 3 6 8 10 11 10 2 0 4 -4 4 -10z m-175 -10 c3
-5 1 -10 -4 -10 -6 0 -11 5 -11 10 0 6 2 10 4 10 3 0 8 -4 11 -10z m105 -24
c0 -3 -4 -8 -10 -11 -5 -3 -10 -1 -10 4 0 6 5 11 10 11 6 0 10 -2 10 -4z m37
-22 c-3 -3 -12 -4 -19 -1 -8 3 -5 6 6 6 11 1 17 -2 13 -5z m70 -19 c0 -8 -4
-15 -9 -15 -4 0 -8 7 -8 15 0 8 4 15 8 15 5 0 9 -7 9 -15z m-267 -19 c0 -3 -4
-8 -10 -11 -5 -3 -10 -1 -10 4 0 6 5 11 10 11 6 0 10 -2 10 -4z m55 -6 c3 -5
1 -10 -4 -10 -6 0 -11 5 -11 10 0 6 2 10 4 10 3 0 8 -4 11 -10z m-95 -10 c0
-5 -5 -10 -11 -10 -5 0 -7 5 -4 10 3 6 8 10 11 10 2 0 4 -4 4 -10z m310 -10
c0 -5 -4 -10 -10 -10 -5 0 -10 5 -10 10 0 6 5 10 10 10 6 0 10 -4 10 -10z
m-340 -10 c0 -5 -4 -10 -10 -10 -5 0 -10 5 -10 10 0 6 5 10 10 10 6 0 10 -4
10 -10z m297 -22 c-3 -8 -6 -5 -6 6 -1 11 2 17 5 13 3 -3 4 -12 1 -19z m-167
2 c0 -5 -2 -10 -4 -10 -3 0 -8 5 -11 10 -3 6 -1 10 4 10 6 0 11 -4 11 -10z
m90 0 c0 -5 -2 -10 -4 -10 -3 0 -8 5 -11 10 -3 6 -1 10 4 10 6 0 11 -4 11 -10z
m-190 -10 c0 -5 -2 -10 -4 -10 -3 0 -8 5 -11 10 -3 6 -1 10 4 10 6 0 11 -4 11
-10z m160 0 c0 -5 -5 -10 -11 -10 -5 0 -7 5 -4 10 3 6 8 10 11 10 2 0 4 -4 4
-10z m70 -9 c0 -6 -4 -13 -10 -16 -5 -3 -10 1 -10 9 0 9 5 16 10 16 6 0 10 -4
10 -9z m-100 -11 c0 -5 -2 -10 -4 -10 -3 0 -8 5 -11 10 -3 6 -1 10 4 10 6 0
11 -4 11 -10z m57 -22 c-3 -8 -6 -5 -6 6 -1 11 2 17 5 13 3 -3 4 -12 1 -19z
m-87 -38 c0 -5 -2 -10 -4 -10 -3 0 -8 5 -11 10 -3 6 -1 10 4 10 6 0 11 -4 11
-10z m-35 -10 c3 -5 1 -10 -4 -10 -6 0 -11 5 -11 10 0 6 2 10 4 10 3 0 8 -4
11 -10z m-35 -20 c0 -5 -5 -10 -11 -10 -5 0 -7 5 -4 10 3 6 8 10 11 10 2 0 4
-4 4 -10z m-60 -30 c0 -5 -5 -10 -11 -10 -5 0 -7 5 -4 10 3 6 8 10 11 10 2 0
4 -4 4 -10z"/>
<path d="M5459 8037 c-80 -30 -146 -86 -167 -142 -6 -16 -30 -97 -52 -180 -58
-216 -80 -298 -86 -317 -4 -13 10 -25 58 -49 86 -43 186 -118 252 -190 l56
-60 0 46 c0 40 3 46 18 41 51 -16 167 -36 170 -29 1 4 22 55 45 113 l43 105
47 -2 46 -3 -6 168 -6 167 57 18 c41 13 72 32 107 66 27 26 49 52 49 57 0 6
-29 15 -63 21 -66 11 -156 45 -336 128 -114 53 -174 63 -232 42z"/>
<path d="M3937 7825 c-40 -14 -61 -34 -77 -73 -11 -25 -14 -622 -4 -622 3 0
36 17 72 39 37 21 91 50 120 65 l52 26 0 243 c0 222 -2 245 -20 274 -31 52
-83 69 -143 48z"/>
<path d="M3354 7768 c-12 -5 -27 -21 -33 -34 -8 -17 -11 -181 -11 -535 l0
-510 133 122 c72 67 167 147 209 178 l77 56 1 338 0 339 -29 29 -29 29 -149
-1 c-81 0 -158 -5 -169 -11z"/>
<path d="M7355 7762 c-48 -30 -59 -50 -59 -108 -1 -47 3 -57 29 -84 40 -39 90
-48 139 -25 91 43 88 172 -4 220 -38 20 -69 19 -105 -3z"/>
<path d="M8164 7501 c-34 -21 -54 -64 -54 -118 0 -26 8 -43 34 -69 30 -30 40
-34 86 -34 43 0 56 5 80 28 100 101 -25 267 -146 193z"/>
<path d="M7145 7375 l-25 -24 0 -545 c0 -301 4 -547 9 -550 5 -3 30 2 56 10
105 36 212 1 299 -98 l46 -53 0 618 0 618 -25 24 c-24 24 -28 25 -180 25 -152
0 -156 -1 -180 -25z"/>
<path d="M6027 7293 c-57 -118 -125 -195 -231 -258 -15 -9 -15 -16 4 -90 89
-341 144 -481 224 -573 l46 -54 0 526 c0 289 -1 526 -3 526 -2 0 -20 -35 -40
-77z"/>
<path d="M1988 7257 c-60 -51 -66 -118 -14 -175 31 -33 39 -37 85 -37 44 0 55
4 83 33 29 29 33 39 33 88 0 50 -3 58 -33 85 -42 38 -113 41 -154 6z"/>
<path d="M4751 7248 c-307 -23 -701 -187 -979 -407 -83 -66 -570 -526 -659
-622 -46 -51 -56 -125 -24 -187 46 -91 150 -126 227 -76 12 9 67 68 120 132
293 351 372 421 577 517 174 81 539 186 564 161 4 -4 8 -114 8 -244 -1 -200
-4 -257 -23 -367 -60 -343 -181 -713 -332 -1015 -33 -66 -57 -120 -53 -120 26
0 364 -57 483 -81 283 -58 567 -149 800 -256 30 -14 73 -33 95 -43 189 -83
563 -347 728 -515 41 -41 77 -75 81 -75 3 0 6 33 6 73 0 104 24 200 72 297 24
47 42 90 42 97 -3 24 -233 282 -354 396 -191 181 -348 292 -601 426 -99 53
-389 173 -446 185 -18 4 -33 11 -33 15 0 4 27 67 61 141 201 444 302 773 316
1030 7 119 -5 188 -44 268 -38 78 -126 163 -214 206 -127 62 -233 78 -418 64z"/>
<path d="M7671 7194 l-21 -27 0 -1345 c0 -1133 2 -1349 14 -1371 65 -122 91
-288 69 -451 -3 -30 -7 -67 -7 -82 -1 -14 -4 -24 -8 -22 -5 3 -38 -77 -38 -93
0 -4 310 -4 311 0 0 1 3 756 6 1677 l6 1675 -28 33 -27 32 -128 0 c-127 0
-129 0 -149 -26z m89 -3224 c0 -5 -4 -10 -10 -10 -5 0 -10 5 -10 10 0 6 5 10
10 10 6 0 10 -4 10 -10z m-10 -34 c0 -3 -4 -8 -10 -11 -5 -3 -10 -1 -10 4 0 6
5 11 10 11 6 0 10 -2 10 -4z m10 -70 c0 -3 -4 -8 -10 -11 -5 -3 -10 -1 -10 4
0 6 5 11 10 11 6 0 10 -2 10 -4z m70 -36 c0 -5 -4 -10 -10 -10 -5 0 -10 5 -10
10 0 6 5 10 10 10 6 0 10 -4 10 -10z"/>
<path d="M8188 6986 c-31 -23 -48 -79 -37 -119 12 -45 42 -67 92 -67 86 0 132
112 71 174 -20 20 -36 26 -68 26 -22 0 -49 -7 -58 -14z"/>
<path d="M8581 6983 c-19 -10 -44 -31 -55 -46 -24 -33 -23 98 -18 -1974 l2
-1163 129 0 130 0 3 183 c2 100 3 799 3 1552 0 1293 -1 1372 -18 1398 -39 59
-116 82 -176 50z"/>
<path d="M5584 6945 c17 -84 18 -244 2 -355 -14 -92 -64 -307 -102 -437 -5
-18 14 -42 113 -140 80 -80 136 -127 173 -145 67 -34 479 -251 685 -361 248
-133 256 -137 294 -137 76 0 161 82 161 154 0 69 -43 118 -150 171 -114 57
-611 341 -705 404 -129 85 -246 226 -302 363 -14 35 -41 117 -60 183 -49 171
-94 308 -105 320 -7 7 -8 0 -4 -20z"/>
<path d="M1542 6837 c-83 -48 -82 -181 2 -221 42 -20 69 -20 106 -1 75 39 95
131 42 194 -23 28 -36 34 -77 37 -31 3 -59 -1 -73 -9z"/>
<path d="M1973 6540 c-65 -39 -89 -118 -58 -184 22 -45 59 -66 120 -66 l45 0
0 -80 0 -79 -67 -3 -68 -3 -3 -107 -3 -108 116 0 115 0 0 275 c0 313 -4 335
-64 360 -48 20 -95 19 -133 -5z"/>
<path d="M4305 6521 l-70 -27 -2 -444 -2 -445 20 49 c60 147 144 562 157 769
9 149 13 144 -103 98z"/>
<path d="M4001 6390 c-46 -28 -99 -62 -118 -76 l-33 -25 0 -710 0 -711 23 29
c44 54 102 149 164 270 l63 123 0 575 c0 316 -3 575 -7 575 -5 0 -46 -23 -92
-50z"/>
<path d="M1575 6303 c-40 -8 -64 -26 -80 -58 -42 -90 11 -185 105 -185 71 0
120 53 120 129 0 71 -73 129 -145 114z"/>
<path d="M3695 6108 c-35 -60 -184 -246 -222 -277 -20 -17 -64 -41 -97 -55
l-61 -24 -3 -668 c-2 -528 0 -669 10 -676 10 -6 10 -8 1 -8 -7 0 -13 -4 -13
-10 0 -15 16 -12 34 5 8 8 18 15 22 15 9 0 106 74 186 142 40 34 55 54 52 66
-4 12 -3 13 3 5 7 -10 18 -4 42 21 23 23 29 36 21 41 -7 4 -16 1 -21 -6 -4 -7
-11 -10 -15 -6 -4 4 1 14 12 21 10 8 21 10 22 5 5 -14 28 -11 42 6 14 17 27
1435 13 1435 -5 0 -17 -15 -28 -32z m-95 -788 l0 -80 -89 0 c-89 0 -89 0 -94
27 -3 15 -3 51 0 80 l6 53 88 0 89 0 0 -80z m-205 -370 c3 -5 1 -10 -4 -10 -6
0 -11 5 -11 10 0 6 2 10 4 10 3 0 8 -4 11 -10z m0 -80 c3 -5 1 -10 -4 -10 -6
0 -11 5 -11 10 0 6 2 10 4 10 3 0 8 -4 11 -10z m139 -16 c3 -8 2 -12 -4 -9 -6
3 -10 10 -10 16 0 14 7 11 14 -7z m46 -24 c0 -5 -5 -10 -11 -10 -5 0 -7 5 -4
10 3 6 8 10 11 10 2 0 4 -4 4 -10z m-40 -20 c0 -5 -4 -10 -10 -10 -5 0 -10 5
-10 10 0 6 5 10 10 10 6 0 10 -4 10 -10z m80 6 c0 -3 -4 -8 -10 -11 -5 -3 -10
-1 -10 4 0 6 5 11 10 11 6 0 10 -2 10 -4z m0 -60 c0 -3 -4 -8 -10 -11 -5 -3
-10 -1 -10 4 0 6 5 11 10 11 6 0 10 -2 10 -4z m80 -36 c0 -5 -2 -10 -4 -10 -3
0 -8 5 -11 10 -3 6 -1 10 4 10 6 0 11 -4 11 -10z m-270 -4 c0 -3 -4 -8 -10
-11 -5 -3 -10 -1 -10 4 0 6 5 11 10 11 6 0 10 -2 10 -4z m190 -5 c0 -6 -4 -13
-10 -16 -5 -3 -10 1 -10 9 0 9 5 16 10 16 6 0 10 -4 10 -9z m-230 -21 c0 -5
-4 -10 -10 -10 -5 0 -10 5 -10 10 0 6 5 10 10 10 6 0 10 -4 10 -10z m40 -20
c0 -5 -4 -10 -10 -10 -5 0 -10 5 -10 10 0 6 5 10 10 10 6 0 10 -4 10 -10z
m190 -4 c0 -3 -4 -8 -10 -11 -5 -3 -10 -1 -10 4 0 6 5 11 10 11 6 0 10 -2 10
-4z m-225 -16 c3 -5 1 -10 -4 -10 -6 0 -11 5 -11 10 0 6 2 10 4 10 3 0 8 -4
11 -10z m185 -10 c0 -5 -2 -10 -4 -10 -3 0 -8 5 -11 10 -3 6 -1 10 4 10 6 0
11 -4 11 -10z m-30 -20 c0 -5 -4 -10 -10 -10 -5 0 -10 5 -10 10 0 6 5 10 10
10 6 0 10 -4 10 -10z m-120 -34 c0 -3 -4 -8 -10 -11 -5 -3 -10 -1 -10 4 0 6 5
11 10 11 6 0 10 -2 10 -4z m120 -6 c0 -5 -4 -10 -10 -10 -5 0 -10 5 -10 10 0
6 5 10 10 10 6 0 10 -4 10 -10z m-50 -10 c0 -5 -4 -10 -10 -10 -5 0 -10 5 -10
10 0 6 5 10 10 10 6 0 10 -4 10 -10z m-130 -40 c0 -5 -2 -10 -4 -10 -3 0 -8 5
-11 10 -3 6 -1 10 4 10 6 0 11 -4 11 -10z m120 0 c0 -5 -2 -10 -4 -10 -3 0 -8
5 -11 10 -3 6 -1 10 4 10 6 0 11 -4 11 -10z m-30 -40 c0 -5 -4 -10 -10 -10 -5
0 -10 5 -10 10 0 6 5 10 10 10 6 0 10 -4 10 -10z m-60 -20 c0 -5 -2 -10 -4
-10 -3 0 -8 5 -11 10 -3 6 -1 10 4 10 6 0 11 -4 11 -10z"/>
<path d="M7198 6081 c-85 -76 6 -205 113 -161 39 16 59 46 59 88 0 44 -14 68
-50 87 -45 23 -85 19 -122 -14z"/>
<path d="M8154 5936 l-34 -34 0 -1051 0 -1051 124 0 123 0 7 38 c3 20 6 493 6
1051 l0 1013 -34 34 c-31 31 -39 34 -96 34 -57 0 -65 -3 -96 -34z"/>
<path d="M5400 5761 l0 -159 38 -15 c20 -8 81 -36 135 -61 l97 -45 0 117 -1
117 -53 32 c-30 18 -88 64 -129 103 -41 38 -78 70 -81 70 -3 0 -6 -72 -6 -159z"/>
<path d="M7492 5857 c-68 -109 -189 -151 -318 -112 -27 8 -50 15 -52 15 -4 0
5 -940 9 -945 3 -2 34 -8 69 -14 77 -12 215 -78 271 -128 21 -19 42 -32 46
-30 8 5 18 1267 11 1267 -2 0 -18 -24 -36 -53z"/>
<path d="M1954 5813 c-12 -2 -30 -13 -40 -25 -18 -19 -19 -59 -18 -1002 l0
-981 137 -3 137 -3 0 1006 0 1005 -69 0 c-38 0 -81 2 -97 4 -16 2 -39 2 -50
-1z"/>
<path d="M5803 5515 c1 -69 5 -125 8 -125 3 0 43 -25 88 -55 45 -30 86 -55 91
-55 4 0 10 -4 12 -8 2 -4 17 -17 33 -29 l30 -21 -2 146 -2 146 -123 63 c-68
34 -126 62 -130 62 -3 1 -6 -55 -5 -124z"/>
<path d="M1552 5423 c-70 -34 -67 9 -67 -850 l0 -773 138 0 137 0 0 771 c0
756 0 772 -20 804 -37 60 -121 81 -188 48z"/>
<path d="M6200 5276 l0 -166 37 -34 c27 -24 40 -31 46 -23 6 8 7 6 4 -4 -5
-17 33 -59 53 -59 6 0 10 -5 10 -11 0 -6 7 -9 15 -5 8 3 15 1 15 -4 0 -6 -5
-10 -12 -10 -6 0 1 -14 17 -30 22 -23 31 -27 38 -18 6 9 7 8 4 -3 -5 -16 9
-39 24 -39 4 0 7 98 8 218 l1 217 -43 20 c-23 12 -81 42 -129 69 l-88 48 0
-166z"/>
<path d="M6957 5235 c-62 -55 -245 -72 -328 -31 -18 9 -34 16 -35 16 -2 0 -3
-124 -3 -275 1 -158 5 -275 11 -275 5 0 18 9 30 20 22 20 139 80 157 80 6 0
11 4 11 9 0 5 8 8 18 7 9 0 16 5 15 12 -2 6 1 12 7 12 6 0 10 -4 10 -9 0 -5
16 -5 38 1 20 5 52 9 70 8 37 -1 33 -31 36 258 1 105 0 192 -3 192 -4 0 -19
-12 -34 -25z m-247 -195 c0 -5 -4 -10 -10 -10 -5 0 -10 5 -10 10 0 6 5 10 10
10 6 0 10 -4 10 -10z m260 -60 c0 -5 -5 -10 -11 -10 -5 0 -7 5 -4 10 3 6 8 10
11 10 2 0 4 -4 4 -10z m-340 -20 c0 -5 -5 -10 -11 -10 -5 0 -7 5 -4 10 3 6 8
10 11 10 2 0 4 -4 4 -10z m40 -60 c0 -5 -4 -10 -10 -10 -5 0 -10 5 -10 10 0 6
5 10 10 10 6 0 10 -4 10 -10z m215 0 c3 -5 1 -10 -4 -10 -6 0 -11 5 -11 10 0
6 2 10 4 10 3 0 8 -4 11 -10z m85 -10 c0 -5 -2 -10 -4 -10 -3 0 -8 5 -11 10
-3 6 -1 10 4 10 6 0 11 -4 11 -10z m-190 -4 c0 -3 -4 -8 -10 -11 -5 -3 -10 -1
-10 4 0 6 5 11 10 11 6 0 10 -2 10 -4z m145 -6 c3 -5 1 -10 -4 -10 -6 0 -11 5
-11 10 0 6 2 10 4 10 3 0 8 -4 11 -10z m-255 -20 c0 -5 -5 -10 -11 -10 -5 0
-7 5 -4 10 3 6 8 10 11 10 2 0 4 -4 4 -10z m35 -20 c3 -5 1 -10 -4 -10 -6 0
-11 5 -11 10 0 6 2 10 4 10 3 0 8 -4 11 -10z m265 6 c0 -3 -4 -8 -10 -11 -5
-3 -10 -1 -10 4 0 6 5 11 10 11 6 0 10 -2 10 -4z m-330 -16 c0 -5 -2 -10 -4
-10 -3 0 -8 5 -11 10 -3 6 -1 10 4 10 6 0 11 -4 11 -10z m170 -10 c0 -5 -4
-10 -10 -10 -5 0 -10 5 -10 10 0 6 5 10 10 10 6 0 10 -4 10 -10z m80 0 c0 -5
-4 -10 -10 -10 -5 0 -10 5 -10 10 0 6 5 10 10 10 6 0 10 -4 10 -10z m-220 -10
c0 -5 -2 -10 -4 -10 -3 0 -8 5 -11 10 -3 6 -1 10 4 10 6 0 11 -4 11 -10z m35
-10 c3 -5 1 -10 -4 -10 -6 0 -11 5 -11 10 0 6 2 10 4 10 3 0 8 -4 11 -10z
m-55 -14 c0 -3 -4 -8 -10 -11 -5 -3 -10 -1 -10 4 0 6 5 11 10 11 6 0 10 -2 10
-4z m30 -16 c0 -5 -4 -10 -10 -10 -5 0 -10 5 -10 10 0 6 5 10 10 10 6 0 10 -4
10 -10z m-60 -20 c0 -5 -2 -10 -4 -10 -3 0 -8 5 -11 10 -3 6 -1 10 4 10 6 0
11 -4 11 -10z m35 -10 c3 -5 1 -10 -4 -10 -6 0 -11 5 -11 10 0 6 2 10 4 10 3
0 8 -4 11 -10z m-31 -31 c-3 -5 -10 -7 -15 -3 -5 3 -7 10 -3 15 3 5 10 7 15 3
5 -3 7 -10 3 -15z"/>
<path d="M4010 4759 c-152 -209 -385 -415 -646 -575 -212 -130 -550 -293 -724
-349 -99 -32 -85 -38 75 -32 321 12 662 74 975 176 171 57 472 207 647 324
220 147 520 402 491 417 -13 8 -415 86 -593 116 -55 9 -111 18 -125 21 -22 4
-34 -8 -100 -98z"/>
<path d="M5093 4593 c1 -23 7 -38 15 -38 6 0 12 -4 11 -10 0 -5 -6 -9 -13 -7
-11 2 -14 -68 -15 -368 l-2 -370 106 0 105 0 0 219 c0 166 -3 221 -12 224 -10
4 -10 7 0 15 9 6 14 36 16 87 2 68 0 78 -16 83 -10 2 -15 8 -13 13 3 4 12 6
20 2 23 -8 18 13 -7 31 l-23 17 23 -5 c25 -5 31 11 7 20 -8 4 -15 11 -15 16 0
6 7 8 15 4 8 -3 15 -1 15 4 0 13 -82 52 -143 70 -26 7 -50 17 -53 21 -12 20
-22 7 -21 -28z m35 -4 c-2 -6 -8 -10 -13 -10 -5 0 -11 4 -13 10 -2 6 4 11 13
11 9 0 15 -5 13 -11z m28 -26 c-10 -10 -19 5 -10 18 6 11 8 11 12 0 2 -7 1
-15 -2 -18z m44 -3 c0 -5 -4 -10 -10 -10 -5 0 -10 5 -10 10 0 6 5 10 10 10 6
0 10 -4 10 -10z m40 -4 c0 -11 -19 -15 -25 -6 -3 5 1 10 9 10 9 0 16 -2 16 -4z
m-70 -37 c0 -5 -7 -9 -15 -9 -15 0 -20 12 -9 23 8 8 24 -1 24 -14z m60 1 c0
-5 -5 -10 -11 -10 -5 0 -7 5 -4 10 3 6 8 10 11 10 2 0 4 -4 4 -10z m-110 -20
c0 -5 -4 -10 -10 -10 -5 0 -10 5 -10 10 0 6 5 10 10 10 6 0 10 -4 10 -10z m85
0 c3 -5 -1 -10 -10 -10 -9 0 -13 5 -10 10 3 6 8 10 10 10 2 0 7 -4 10 -10z
m-45 -20 c0 -5 -4 -10 -10 -10 -5 0 -10 5 -10 10 0 6 5 10 10 10 6 0 10 -4 10
-10z m80 6 c0 -3 -4 -8 -10 -11 -5 -3 -10 -1 -10 4 0 6 5 11 10 11 6 0 10 -2
10 -4z m20 -26 c0 -5 -4 -10 -10 -10 -5 0 -10 5 -10 10 0 6 5 10 10 10 6 0 10
-4 10 -10z m-23 -26 c-9 -9 -28 6 -21 18 4 6 10 6 17 -1 6 -6 8 -13 4 -17z
m-77 6 c0 -5 -4 -10 -10 -10 -5 0 -10 5 -10 10 0 6 5 10 10 10 6 0 10 -4 10
-10z m40 -10 c0 -5 -5 -10 -11 -10 -5 0 -7 5 -4 10 3 6 8 10 11 10 2 0 4 -4 4
-10z m-80 -10 c0 -5 -2 -10 -4 -10 -3 0 -8 5 -11 10 -3 6 -1 10 4 10 6 0 11
-4 11 -10z m35 -10 c3 -5 -1 -10 -10 -10 -9 0 -13 5 -10 10 3 6 8 10 10 10 2
0 7 -4 10 -10z m95 0 c-18 -12 -30 -13 -30 -2 0 4 10 9 22 9 18 2 20 0 8 -7z
m-45 -20 c3 -5 1 -10 -4 -10 -6 0 -11 5 -11 10 0 6 2 10 4 10 3 0 8 -4 11 -10z
m85 0 c0 -5 -4 -10 -10 -10 -5 0 -10 5 -10 10 0 6 5 10 10 10 6 0 10 -4 10
-10z m-140 -20 c0 -5 -5 -10 -11 -10 -5 0 -7 5 -4 10 3 6 8 10 11 10 2 0 4 -4
4 -10z m110 0 c0 -5 -4 -10 -10 -10 -5 0 -10 5 -10 10 0 6 5 10 10 10 6 0 10
-4 10 -10z m-50 -25 c0 -8 -4 -15 -10 -15 -5 0 -10 7 -10 15 0 8 5 15 10 15 6
0 10 -7 10 -15z m80 5 c0 -5 -4 -10 -10 -10 -5 0 -10 5 -10 10 0 6 5 10 10 10
6 0 10 -4 10 -10z m-140 -20 c0 -5 -2 -10 -4 -10 -3 0 -8 5 -11 10 -3 6 -1 10
4 10 6 0 11 -4 11 -10z m105 0 c3 -5 -3 -10 -15 -10 -12 0 -18 5 -15 10 3 6
10 10 15 10 5 0 12 -4 15 -10z m-75 -10 c0 -5 -5 -10 -11 -10 -5 0 -7 5 -4 10
3 6 8 10 11 10 2 0 4 -4 4 -10z m110 -10 c0 -5 -2 -10 -4 -10 -3 0 -8 5 -11
10 -3 6 -1 10 4 10 6 0 11 -4 11 -10z m-80 -10 c0 -5 -4 -10 -10 -10 -5 0 -10
5 -10 10 0 6 5 10 10 10 6 0 10 -4 10 -10z m44 -15 c3 -8 1 -15 -4 -15 -6 0
-10 7 -10 15 0 8 2 15 4 15 2 0 6 -7 10 -15z m-4 -45 c0 -5 -5 -10 -11 -10 -5
0 -7 5 -4 10 3 6 8 10 11 10 2 0 4 -4 4 -10z m-80 -10 c0 -5 -2 -10 -4 -10 -3
0 -8 5 -11 10 -3 6 -1 10 4 10 6 0 11 -4 11 -10z m120 -30 c0 -5 -2 -10 -4
-10 -3 0 -8 5 -11 10 -3 6 -1 10 4 10 6 0 11 -4 11 -10z"/>
<path d="M6925 4620 c-82 -20 -196 -91 -258 -159 -145 -161 -163 -445 -39
-637 148 -229 483 -294 711 -137 80 55 145 142 181 241 25 70 30 98 30 175 -1
264 -133 454 -355 512 -61 16 -216 19 -270 5z m198 -174 l48 -65 -27 -69 c-31
-80 -35 -82 -156 -82 l-69 0 -34 72 -35 72 27 31 c97 107 94 105 148 105 l51
0 47 -64z m-274 -153 c29 -68 31 -79 20 -102 l-13 -26 -4 29 c-4 30 -51 115
-85 154 l-20 22 35 0 c34 0 36 -2 67 -77z m545 24 l35 -54 -14 -59 c-8 -32
-16 -71 -19 -85 -7 -32 -28 -39 -113 -39 l-63 0 -35 70 -35 70 26 75 27 75 78
0 79 0 34 -53z m14 -318 l22 -51 -29 -56 c-46 -92 -57 -100 -129 -104 l-64 -3
-29 56 -30 57 36 68 37 69 66 6 c37 3 74 6 83 7 11 1 23 -15 37 -49z m-544
-33 c73 -118 50 -124 -35 -10 -20 28 -45 58 -54 67 -15 16 -14 17 13 17 26 0
36 -9 76 -74z m271 -117 c9 -17 15 -32 13 -34 -5 -4 -193 31 -207 39 -26 17 5
26 89 26 l89 0 16 -31z"/>
<path d="M4920 4520 c0 -5 7 -10 15 -10 8 0 15 5 15 10 0 6 -7 10 -15 10 -8 0
-15 -4 -15 -10z"/>
<path d="M4874 4474 c-12 -11 -43 -38 -70 -60 -97 -78 -90 -59 -89 -239 1 -88
2 -208 3 -267 l2 -108 115 0 115 0 0 304 c0 300 0 304 -21 309 -12 3 -18 10
-15 16 4 6 13 8 21 4 8 -3 15 0 15 6 0 6 -7 11 -15 11 -8 0 -15 5 -15 10 0 6
7 10 15 10 8 0 15 6 15 14 0 21 -51 14 -76 -10z m26 -14 c0 -5 -4 -10 -10 -10
-5 0 -10 5 -10 10 0 6 5 10 10 10 6 0 10 -4 10 -10z m-14 -34 c15 -16 18 -26
6 -26 -4 0 -13 9 -20 20 -14 23 -7 26 14 6z m-36 -16 c0 -5 -2 -10 -4 -10 -3
0 -8 5 -11 10 -3 6 -1 10 4 10 6 0 11 -4 11 -10z m-30 -30 c0 -5 -4 -10 -10
-10 -5 0 -10 5 -10 10 0 6 5 10 10 10 6 0 10 -4 10 -10z m60 0 c0 -5 -4 -10
-10 -10 -5 0 -10 5 -10 10 0 6 5 10 10 10 6 0 10 -4 10 -10z m60 0 c0 -5 -7
-10 -15 -10 -8 0 -15 5 -15 10 0 6 7 10 15 10 8 0 15 -4 15 -10z m-155 -10 c3
-5 -1 -10 -10 -10 -9 0 -13 5 -10 10 3 6 8 10 10 10 2 0 7 -4 10 -10z m65 -20
c0 -5 -4 -10 -10 -10 -5 0 -10 5 -10 10 0 6 5 10 10 10 6 0 10 -4 10 -10z
m-30 -10 c0 -5 -4 -10 -10 -10 -5 0 -10 5 -10 10 0 6 5 10 10 10 6 0 10 -4 10
-10z m120 0 c0 -5 -5 -10 -11 -10 -5 0 -7 5 -4 10 3 6 8 10 11 10 2 0 4 -4 4
-10z m-155 -10 c3 -5 1 -10 -4 -10 -6 0 -11 5 -11 10 0 6 2 10 4 10 3 0 8 -4
11 -10z m95 0 c0 -5 -2 -10 -4 -10 -3 0 -8 5 -11 10 -3 6 -1 10 4 10 6 0 11
-4 11 -10z m-130 -10 c0 -5 -4 -10 -10 -10 -5 0 -10 5 -10 10 0 6 5 10 10 10
6 0 10 -4 10 -10z m190 -20 c0 -5 -4 -10 -10 -10 -5 0 -10 5 -10 10 0 6 5 10
10 10 6 0 10 -4 10 -10z m-155 -10 c3 -5 1 -10 -4 -10 -6 0 -11 5 -11 10 0 6
2 10 4 10 3 0 8 -4 11 -10z m-35 -10 c0 -5 -4 -10 -10 -10 -5 0 -10 5 -10 10
0 6 5 10 10 10 6 0 10 -4 10 -10z m35 -30 c3 -5 1 -10 -4 -10 -6 0 -11 5 -11
10 0 6 2 10 4 10 3 0 8 -4 11 -10z m-35 -4 c0 -3 -4 -8 -10 -11 -5 -3 -10 -1
-10 4 0 6 5 11 10 11 6 0 10 -2 10 -4z m120 -20 c0 -3 -4 -8 -10 -11 -5 -3
-10 -1 -10 4 0 6 5 11 10 11 6 0 10 -2 10 -4z m-120 -20 c0 -3 -4 -8 -10 -11
-5 -3 -10 -1 -10 4 0 6 5 11 10 11 6 0 10 -2 10 -4z"/>
<path d="M5458 4463 c-10 -2 -18 -11 -18 -19 0 -8 4 -13 9 -9 5 3 12 1 16 -5
3 -5 -1 -10 -9 -10 -9 0 -16 -7 -16 -15 0 -8 7 -15 16 -15 8 0 12 -5 9 -10 -4
-6 -11 -8 -16 -5 -5 4 -9 -1 -9 -9 0 -10 6 -13 15 -10 8 4 15 1 15 -5 0 -6 -7
-11 -15 -11 -8 0 -15 -7 -15 -16 0 -8 4 -13 9 -9 5 3 12 1 16 -5 3 -5 -1 -10
-9 -10 -9 0 -16 -7 -16 -15 0 -8 7 -15 16 -15 8 0 12 -5 9 -10 -4 -6 -10 -8
-14 -6 -4 3 -9 -98 -10 -224 l-2 -230 116 0 116 0 -2 280 c-1 154 -6 283 -10
286 -5 3 -9 0 -9 -5 0 -6 -5 -11 -10 -11 -6 0 -10 6 -8 14 2 9 -23 31 -58 54
-66 43 -89 52 -116 45z m32 -13 c0 -5 -5 -10 -11 -10 -5 0 -7 5 -4 10 3 6 8
10 11 10 2 0 4 -4 4 -10z m30 -16 c0 -3 -7 -12 -15 -21 -20 -19 -32 -10 -14
11 14 15 29 21 29 10z m30 -24 c0 -5 -4 -10 -10 -10 -5 0 -10 5 -10 10 0 6 5
10 10 10 6 0 10 -4 10 -10z m30 -20 c0 -5 -4 -10 -10 -10 -5 0 -10 5 -10 10 0
6 5 10 10 10 6 0 10 -4 10 -10z m30 -20 c0 -5 -4 -10 -10 -10 -5 0 -10 5 -10
10 0 6 5 10 10 10 6 0 10 -4 10 -10z m-110 -10 c0 -5 -2 -10 -4 -10 -3 0 -8 5
-11 10 -3 6 -1 10 4 10 6 0 11 -4 11 -10z m50 0 c0 -5 -5 -10 -11 -10 -5 0 -7
-4 -4 -10 3 -5 1 -10 -4 -10 -13 0 -13 3 -5 24 7 18 24 22 24 6z m65 -30 c3
-5 -1 -10 -10 -10 -9 0 -13 5 -10 10 3 6 8 10 10 10 2 0 7 -4 10 -10z m-105
-4 c0 -3 -4 -8 -10 -11 -5 -3 -10 -1 -10 4 0 6 5 11 10 11 6 0 10 -2 10 -4z
m70 -6 c0 -5 -4 -10 -10 -10 -5 0 -10 5 -10 10 0 6 5 10 10 10 6 0 10 -4 10
-10z m-40 -20 c0 -5 -2 -10 -4 -10 -3 0 -8 5 -11 10 -3 6 -1 10 4 10 6 0 11
-4 11 -10z m-30 -14 c0 -3 -4 -8 -10 -11 -5 -3 -10 -1 -10 4 0 6 5 11 10 11 6
0 10 -2 10 -4z m140 -6 c0 -5 -5 -10 -11 -10 -5 0 -7 5 -4 10 3 6 8 10 11 10
2 0 4 -4 4 -10z m-110 -25 c0 -8 -4 -15 -10 -15 -5 0 -7 7 -4 15 4 8 8 15 10
15 2 0 4 -7 4 -15z m40 -5 c0 -5 -5 -10 -11 -10 -5 0 -7 5 -4 10 3 6 8 10 11
10 2 0 4 -4 4 -10z m40 6 c0 -3 -4 -8 -10 -11 -5 -3 -10 -1 -10 4 0 6 5 11 10
11 6 0 10 -2 10 -4z m-70 -76 c0 -5 -5 -10 -11 -10 -5 0 -7 5 -4 10 3 6 8 10
11 10 2 0 4 -4 4 -10z"/>
<path d="M5811 4034 l-2 -234 116 0 115 0 1 33 c1 17 2 82 2 144 l0 112 -39
36 c-21 19 -45 33 -52 30 -7 -3 -10 0 -7 5 4 6 -4 19 -17 30 -25 21 -43 26
-33 10 3 -5 1 -10 -5 -10 -7 0 -10 6 -7 14 8 19 -16 38 -37 30 -12 -4 -15 -2
-11 9 4 8 0 17 -8 20 -13 5 -15 -29 -16 -229z m49 172 c0 -3 -4 -8 -10 -11 -5
-3 -10 -1 -10 4 0 6 5 11 10 11 6 0 10 -2 10 -4z"/>
<path d="M4527 4210 c-17 -13 -24 -27 -20 -37 5 -12 1 -14 -15 -8 -16 5 -22 2
-22 -9 0 -9 -7 -16 -16 -16 -10 0 -41 -16 -70 -35 -49 -33 -53 -39 -50 -68 2
-18 4 -40 5 -51 1 -12 6 -16 16 -12 8 3 15 1 15 -4 0 -6 -7 -10 -15 -10 -9 0
-15 -10 -15 -26 0 -14 4 -23 9 -19 5 3 12 1 16 -5 3 -5 -1 -10 -9 -10 -9 0
-16 -5 -16 -11 0 -7 9 -9 23 -6 25 7 56 -7 44 -20 -5 -4 -12 -1 -18 7 -7 13
-10 13 -18 1 -5 -7 -14 -10 -20 -7 -6 4 -11 0 -11 -8 0 -9 7 -16 16 -16 8 0
12 -5 9 -10 -4 -6 -11 -8 -16 -5 -5 4 -9 0 -9 -7 0 -10 26 -13 112 -12 l113 1
1 97 c2 93 1 96 -18 90 -15 -4 -19 -2 -16 7 3 8 13 13 22 11 15 -3 17 9 15
107 -1 61 -6 111 -9 111 -4 0 -19 -9 -33 -20z m23 -10 c0 -5 -4 -10 -10 -10
-5 0 -10 5 -10 10 0 6 5 10 10 10 6 0 10 -4 10 -10z m0 -30 c0 -5 -4 -10 -10
-10 -5 0 -10 5 -10 10 0 6 5 10 10 10 6 0 10 -4 10 -10z m-40 -40 c0 -5 -4
-10 -10 -10 -5 0 -10 5 -10 10 0 6 5 10 10 10 6 0 10 -4 10 -10z m40 0 c0 -5
-4 -10 -10 -10 -5 0 -10 5 -10 10 0 6 5 10 10 10 6 0 10 -4 10 -10z m-80 -21
c0 -5 -4 -9 -10 -9 -5 0 -10 7 -10 16 0 8 5 12 10 9 6 -3 10 -10 10 -16z m-36
-20 c-3 -5 -10 -7 -15 -3 -5 3 -7 10 -3 15 3 5 10 7 15 3 5 -3 7 -10 3 -15z
m76 1 c0 -5 -4 -10 -9 -10 -6 0 -13 5 -16 10 -3 6 1 10 9 10 9 0 16 -4 16 -10z
m40 0 c0 -5 -4 -10 -10 -10 -5 0 -10 5 -10 10 0 6 5 10 10 10 6 0 10 -4 10
-10z m-154 -27 c-10 -10 -19 5 -10 18 6 11 8 11 12 0 2 -7 1 -15 -2 -18z m74
7 c0 -5 -4 -10 -10 -10 -5 0 -10 5 -10 10 0 6 5 10 10 10 6 0 10 -4 10 -10z
m-35 -9 c3 -5 1 -12 -5 -16 -5 -3 -10 1 -10 9 0 18 6 21 15 7z m75 -1 c0 -5
-4 -10 -10 -10 -5 0 -10 5 -10 10 0 6 5 10 10 10 6 0 10 -4 10 -10z m-140 -10
c0 -5 -4 -10 -10 -10 -5 0 -10 5 -10 10 0 6 5 10 10 10 6 0 10 -4 10 -10z
m180 -5 c0 -8 -4 -15 -10 -15 -5 0 -10 7 -10 15 0 8 5 15 10 15 6 0 10 -7 10
-15z m-150 -10 c0 -8 -4 -15 -10 -15 -5 0 -10 7 -10 15 0 8 5 15 10 15 6 0 10
-7 10 -15z m70 5 c0 -5 -5 -10 -11 -10 -5 0 -7 5 -4 10 3 6 8 10 11 10 2 0 4
-4 4 -10z m-35 -20 c3 -5 1 -10 -4 -10 -6 0 -11 5 -11 10 0 6 2 10 4 10 3 0 8
-4 11 -10z m75 0 c0 -5 -4 -10 -10 -10 -5 0 -10 5 -10 10 0 6 5 10 10 10 6 0
10 -4 10 -10z m-140 -10 c0 -5 -4 -10 -10 -10 -5 0 -10 5 -10 10 0 6 5 10 10
10 6 0 10 -4 10 -10z m34 -21 c-3 -5 -10 -7 -15 -3 -5 3 -7 10 -3 15 3 5 10 7
15 3 5 -3 7 -10 3 -15z m66 11 c0 -5 -4 -10 -10 -10 -5 0 -10 5 -10 10 0 6 5
10 10 10 6 0 10 -4 10 -10z m-30 -20 c0 -5 -4 -10 -10 -10 -5 0 -10 5 -10 10
0 6 5 10 10 10 6 0 10 -4 10 -10z m75 0 c-3 -5 -10 -10 -16 -10 -5 0 -9 5 -9
10 0 6 7 10 16 10 8 0 12 -4 9 -10z m-111 -31 c-3 -5 -10 -7 -15 -3 -5 3 -7
10 -3 15 3 5 10 7 15 3 5 -3 7 -10 3 -15z m146 11 c0 -5 -4 -10 -10 -10 -5 0
-10 5 -10 10 0 6 5 10 10 10 6 0 10 -4 10 -10z m-40 -20 c0 -11 -4 -20 -10
-20 -5 0 -10 9 -10 20 0 11 5 20 10 20 6 0 10 -9 10 -20z m-70 0 c0 -5 -4 -10
-10 -10 -5 0 -10 5 -10 10 0 6 5 10 10 10 6 0 10 -4 10 -10z m35 -20 c3 -5 1
-10 -4 -10 -6 0 -11 5 -11 10 0 6 2 10 4 10 3 0 8 -4 11 -10z m75 1 c0 -5 -9
-11 -21 -14 -16 -4 -18 -3 -8 9 13 16 29 19 29 5z m-140 -11 c0 -5 -4 -10 -10
-10 -5 0 -10 5 -10 10 0 6 5 10 10 10 6 0 10 -4 10 -10z m30 -10 c0 -5 -4 -10
-10 -10 -5 0 -10 5 -10 10 0 6 5 10 10 10 6 0 10 -4 10 -10z m40 -20 c0 -5 -4
-10 -10 -10 -5 0 -10 5 -10 10 0 6 5 10 10 10 6 0 10 -4 10 -10z m35 0 c3 -5
-1 -10 -9 -10 -9 0 -16 5 -16 10 0 6 4 10 9 10 6 0 13 -4 16 -10z m-75 -10 c0
-5 -5 -10 -11 -10 -5 0 -7 5 -4 10 3 6 8 10 11 10 2 0 4 -4 4 -10z m110 -10
c0 -5 -4 -10 -10 -10 -5 0 -10 5 -10 10 0 6 5 10 10 10 6 0 10 -4 10 -10z
m-140 -25 c0 -9 -6 -12 -15 -9 -8 4 -15 10 -15 15 0 5 7 9 15 9 8 0 15 -7 15
-15z m35 5 c3 -5 1 -10 -4 -10 -6 0 -11 5 -11 10 0 6 2 10 4 10 3 0 8 -4 11
-10z m35 -6 c0 -8 -4 -12 -10 -9 -5 3 -10 10 -10 16 0 5 5 9 10 9 6 0 10 -7
10 -16z m40 12 c0 -11 -19 -15 -25 -6 -3 5 1 10 9 10 9 0 16 -2 16 -4z"/>
<path d="M4190 3990 c0 -5 -7 -7 -15 -4 -8 4 -15 1 -15 -5 0 -6 5 -11 10 -11
6 0 10 -11 10 -25 0 -31 -12 -32 -25 -4 -12 25 -31 22 -27 -3 2 -10 -2 -18 -7
-18 -6 0 -11 7 -11 17 0 14 -2 14 -21 -3 -12 -10 -22 -17 -23 -15 -2 8 -46
-11 -46 -20 0 -5 -11 -9 -25 -9 -14 0 -25 -5 -25 -10 0 -6 -8 -10 -17 -8 -11
2 -17 -2 -15 -11 2 -9 -3 -11 -13 -7 -19 7 -75 -22 -75 -39 0 -7 57 -10 173
-9 l172 1 1 96 c1 53 0 97 -2 97 -2 0 -4 -4 -4 -10z m-10 -95 c0 -3 -9 -5 -20
-5 -11 0 -20 7 -20 15 0 13 4 14 20 5 11 -6 20 -13 20 -15z m-90 5 c0 -5 -4
-10 -10 -10 -5 0 -10 5 -10 10 0 6 5 10 10 10 6 0 10 -4 10 -10z m40 0 c0 -5
-4 -10 -10 -10 -5 0 -10 5 -10 10 0 6 5 10 10 10 6 0 10 -4 10 -10z m-120 -35
c0 -8 -4 -15 -10 -15 -5 0 -10 7 -10 15 0 8 5 15 10 15 6 0 10 -7 10 -15z m40
-5 c0 -5 -4 -10 -10 -10 -5 0 -10 5 -10 10 0 6 5 10 10 10 6 0 10 -4 10 -10z
m40 0 c0 -5 -4 -10 -10 -10 -5 0 -10 5 -10 10 0 6 5 10 10 10 6 0 10 -4 10
-10z m40 0 c0 -5 -4 -10 -9 -10 -6 0 -13 5 -16 10 -3 6 1 10 9 10 9 0 16 -4
16 -10z m45 0 c-3 -5 -10 -10 -16 -10 -5 0 -9 5 -9 10 0 6 7 10 16 10 8 0 12
-4 9 -10z m-205 -30 c0 -5 -9 -10 -20 -10 -11 0 -20 5 -20 10 0 6 9 10 20 10
11 0 20 -4 20 -10z m40 0 c0 -5 -4 -10 -10 -10 -5 0 -10 5 -10 10 0 6 5 10 10
10 6 0 10 -4 10 -10z m40 0 c0 -5 -4 -10 -10 -10 -5 0 -10 5 -10 10 0 6 5 10
10 10 6 0 10 -4 10 -10z m40 1 c0 -6 -4 -13 -10 -16 -5 -3 -10 1 -10 9 0 9 5
16 10 16 6 0 10 -4 10 -9z m40 -1 c0 -5 -7 -10 -16 -10 -8 0 -12 5 -9 10 3 6
10 10 16 10 5 0 9 -4 9 -10z m45 0 c3 -5 -1 -10 -9 -10 -9 0 -16 5 -16 10 0 6
4 10 9 10 6 0 13 -4 16 -10z"/>
<path d="M6184 3934 c3 -9 6 -42 6 -74 l0 -58 58 3 c31 1 64 3 72 3 9 1 -4 21
-35 52 -26 27 -52 47 -57 44 -4 -3 -8 2 -8 11 0 9 -4 13 -10 10 -5 -3 -10 1
-10 9 0 9 -5 16 -11 16 -6 0 -8 -7 -5 -16z m33 -84 c-2 -29 -17 -24 -17 6 0
14 4 23 9 19 6 -3 9 -14 8 -25z"/>
<path d="M1465 3573 c7 -71 42 -286 50 -313 4 -12 15 -15 39 -12 46 5 100 -14
141 -49 l33 -29 109 63 c59 35 150 89 201 120 93 57 128 67 150 45 35 -35 9
-56 -233 -193 -66 -37 -138 -78 -161 -91 -41 -23 -41 -23 -36 -73 6 -67 -3
-112 -33 -156 l-25 -36 77 -35 c212 -97 403 -187 446 -213 l48 -28 -106 -98
c-58 -55 -122 -108 -143 -120 -109 -61 -110 -212 -2 -268 42 -22 104 -18 144
8 16 11 52 55 81 100 47 73 222 305 230 305 9 0 112 -48 345 -160 140 -68 299
-144 352 -170 l98 -46 27 29 c37 39 98 67 151 67 40 0 44 2 59 38 8 20 96 191
194 379 99 187 179 346 179 352 0 8 -116 11 -400 11 l-400 0 0 33 c0 17 -3 42
-6 55 l-6 22 440 0 440 0 47 95 c49 99 66 113 109 94 38 -18 33 -44 -25 -160
-67 -135 -372 -792 -416 -897 l-34 -83 34 -39 c35 -38 57 -105 57 -171 0 -27
6 -33 54 -54 30 -13 220 -104 422 -201 376 -180 829 -394 896 -421 43 -18 12
-30 428 167 680 323 805 383 903 429 l107 52 0 54 c0 67 10 94 54 143 l36 39
-39 89 c-34 78 -105 232 -275 599 -26 55 -81 168 -123 251 -81 161 -87 195
-41 207 36 10 60 -14 108 -107 l45 -86 438 0 c489 0 444 8 431 -72 l-7 -38
-398 0 c-283 0 -399 -3 -399 -11 0 -6 8 -23 19 -37 23 -34 229 -425 313 -597
l64 -130 44 -6 c61 -9 110 -31 140 -62 14 -15 29 -27 34 -27 14 0 243 104 466
212 199 97 341 161 346 156 18 -21 227 -305 248 -338 37 -58 69 -82 121 -87
69 -8 131 36 155 110 18 56 -7 116 -68 163 -26 20 -95 79 -155 131 -87 78
-105 99 -95 109 7 7 128 67 268 133 140 67 258 125 263 130 6 6 0 29 -14 58
-24 48 -31 114 -17 163 6 24 -3 30 -163 120 -210 117 -289 166 -289 180 0 20
41 52 58 45 19 -7 237 -133 348 -201 l72 -44 32 30 c34 32 84 50 141 50 l37 0
12 66 c6 37 15 105 21 153 5 47 11 105 14 129 l5 42 -611 0 -612 0 -66 -63
c-72 -68 -178 -126 -271 -148 -31 -8 -110 -14 -180 -14 -111 0 -133 3 -199 28
-96 35 -147 65 -231 138 l-69 59 -2541 0 -2542 0 7 -67z m2701 -122 c44 -20
81 -60 90 -98 9 -35 -2 -38 -21 -6 -9 16 -32 39 -51 52 -29 20 -43 23 -99 19
-60 -4 -68 -7 -105 -43 l-41 -40 11 31 c19 55 88 104 145 104 17 0 48 -9 71
-19z m2062 -8 c29 -21 72 -79 72 -97 0 -5 -18 8 -40 29 -37 36 -45 39 -105 43
-73 5 -111 -13 -153 -72 -24 -33 -29 -24 -11 21 14 37 47 72 84 89 40 19 119
12 153 -13z m-1058 -42 c5 -11 10 -53 10 -94 0 -70 2 -75 23 -81 32 -8 76 -57
92 -102 7 -22 12 -40 11 -41 -1 -2 -23 17 -49 41 -45 43 -95 66 -146 66 -38 0
-107 -38 -142 -78 l-32 -37 6 35 c9 45 34 79 80 109 37 24 37 25 37 94 0 52 4
75 17 89 22 25 79 24 93 -1z m-1986 -7 c9 -3 16 -17 16 -29 0 -22 -64 -83
-188 -182 -22 -17 -22 -20 -8 -48 20 -40 30 -85 20 -85 -5 0 -19 16 -31 34
-37 57 -87 89 -148 94 -68 6 -117 -11 -160 -55 l-34 -35 9 33 c23 81 83 123
175 124 33 0 69 -3 81 -8 17 -6 34 4 90 56 118 107 135 117 178 101z m3947
-23 c24 -16 70 -51 103 -79 l59 -51 81 5 c71 4 86 2 126 -19 48 -25 90 -77 90
-110 0 -19 -3 -18 -32 10 -42 40 -76 53 -141 53 -65 0 -118 -30 -159 -91 l-31
-44 7 34 c3 19 13 48 21 64 8 17 14 31 13 31 -40 14 -216 147 -223 168 -7 21
11 58 28 58 7 0 33 -13 58 -29z m-4530 -265 c2 -2 2 -27 1 -55 l-4 -51 -390 0
c-307 0 -389 3 -386 13 3 6 35 31 73 55 l69 42 316 0 c174 0 319 -2 321 -4z
m2299 -13 c0 -10 -3 -35 -6 -55 l-7 -38 -248 0 c-159 0 -249 -4 -249 -10 0 -5
27 -37 59 -69 104 -104 242 -166 449 -202 178 -30 162 -40 163 99 2 165 5 176
52 180 21 2 44 -1 51 -7 9 -8 15 -55 19 -147 3 -75 8 -138 11 -142 10 -10 188
18 276 43 147 43 243 95 324 178 l71 72 -256 3 -256 2 -6 48 c-3 26 -3 50 0
54 2 5 173 8 379 8 l374 0 0 -55 0 -55 -55 0 c-49 0 -57 -3 -65 -24 -14 -37
-126 -152 -191 -195 -69 -46 -233 -112 -339 -136 -41 -9 -115 -20 -163 -23
l-89 -7 2 -205 c0 -114 5 -206 10 -208 65 -23 130 -119 129 -192 l0 -45 -14
39 c-15 42 -65 100 -105 121 -82 43 -181 25 -250 -44 -29 -29 -50 -60 -54 -81
-4 -19 -10 -29 -13 -23 -2 7 1 37 7 66 12 59 61 127 109 152 l28 14 6 198 c3
109 4 199 2 201 -1 2 -49 8 -106 14 -287 28 -549 156 -663 321 l-39 57 -54 0
-53 0 0 48 c0 27 3 52 7 55 3 4 174 7 380 7 349 0 373 -1 373 -17z m3455 -24
c111 -70 115 -69 -318 -69 l-384 0 -10 55 -10 55 329 0 328 0 65 -41z m-5550
-73 c16 -11 17 -18 8 -37 -18 -40 -228 -274 -316 -351 -45 -40 -129 -119 -185
-176 l-104 -103 -50 25 -49 25 118 125 c65 69 177 180 248 247 72 67 159 153
195 191 68 72 96 83 135 54z m4846 -128 c169 -158 504 -487 498 -491 -2 -1
-19 -8 -38 -14 -29 -11 -37 -10 -55 5 -12 9 -73 60 -136 112 -63 53 -143 117
-177 143 -34 26 -119 108 -188 183 -124 134 -142 163 -113 192 29 29 57 11
209 -130z"/>
<path d="M1171 3187 c-157 -60 -175 -295 -29 -366 40 -19 61 -21 229 -21 196
0 239 9 281 56 82 93 52 294 -49 324 -60 17 -391 23 -432 7z m312 -24 c125 -6
127 -7 127 -30 l0 -23 -200 0 c-199 0 -201 0 -190 21 22 40 50 43 263 32z"/>
<path d="M8657 3188 c-101 -28 -146 -160 -93 -273 48 -102 83 -115 309 -115
192 0 225 6 275 54 39 36 67 120 57 169 -11 53 -53 116 -97 145 -41 27 -43 27
-227 29 -104 1 -203 -3 -224 -9z m385 -40 c22 -36 12 -38 -187 -38 -187 0
-195 1 -195 20 0 37 26 41 204 36 121 -4 172 -9 178 -18z"/>
<path d="M3360 2121 c-40 -13 -84 -37 -104 -60 -25 -28 -125 -195 -120 -200 2
-3 14 5 27 16 35 33 68 46 136 58 l64 11 37 69 c21 39 41 80 45 93 6 20 3 22
-27 21 -18 0 -44 -4 -58 -8z"/>
<path d="M6830 2121 c0 -25 90 -176 107 -179 63 -12 99 -27 134 -59 22 -20 39
-29 39 -22 0 8 -26 57 -58 109 -50 83 -63 98 -108 121 -61 32 -114 45 -114 30z"/>
<path d="M6669 2101 c-19 -10 -47 -37 -64 -60 -27 -39 -30 -50 -30 -119 0 -64
6 -92 34 -166 l35 -88 12 61 c16 79 44 123 102 163 26 17 49 32 51 34 3 3 -71
142 -94 176 -11 16 -13 16 -46 -1z"/>
<path d="M3514 2015 l-46 -96 47 -50 c48 -51 75 -102 75 -141 0 -13 4 -29 9
-37 14 -21 71 167 71 232 0 80 -59 187 -103 187 -4 0 -28 -43 -53 -95z"/>
<path d="M3250 1891 c-95 -29 -152 -85 -171 -167 -24 -103 42 -223 148 -275
49 -24 137 -29 183 -11 54 21 108 71 134 123 49 98 27 190 -64 272 -67 60
-152 81 -230 58z"/>
<path d="M6830 1884 c-78 -34 -150 -138 -150 -218 0 -219 281 -320 427 -152
94 106 95 218 4 306 -76 73 -196 101 -281 64z"/>
</g>
</svg>
